HIERARCHY
ROOT Hips
{
	OFFSET -0.001795 -0.223333 0.028219
	CHANNELS 6 Xposition Yposition Zposition Zrotation Yrotation Xrotation 
	JOINT LeftUpLeg
	{
		OFFSET 0.069520 -0.091406 -0.006815
		CHANNELS 3 Zrotation Yrotation Xrotation
		JOINT LeftLeg
		{
			OFFSET 0.034277 -0.375199 -0.004496
			CHANNELS 3 Zrotation Yrotation Xrotation
			JOINT LeftFoot
			{
				OFFSET -0.013596 -0.397961 -0.043693
				CHANNELS 3 Zrotation Yrotation Xrotation
				JOINT LeftToe
				{
					OFFSET 0.026358 -0.055791 0.119288
					CHANNELS 3 Zrotation Yrotation Xrotation
					End Site
					{
						OFFSET 0.000000 0.000000 0.000000
					}
				}
			}
		}
	}
	JOINT RightUpLeg
	{
		OFFSET -0.067670 -0.090522 -0.004320
		CHANNELS 3 Zrotation Yrotation Xrotation
		JOINT RightLeg
		{
			OFFSET -0.038290 -0.382569 -0.008850
			CHANNELS 3 Zrotation Yrotation Xrotation
			JOINT RightFoot
			{
				OFFSET 0.015774 -0.398415 -0.042312
				CHANNELS 3 Zrotation Yrotation Xrotation
				JOINT RightToe
				{
					OFFSET -0.025372 -0.048144 0.123348
					CHANNELS 3 Zrotation Yrotation Xrotation
					End Site
					{
						OFFSET 0.000000 0.000000 0.000000
					}
				}
			}
		}
	}
	JOINT Spine
	{
		OFFSET -0.002533 0.108963 -0.026696
		CHANNELS 3 Zrotation Yrotation Xrotation
		JOINT Spine1
		{
			OFFSET 0.005487 0.135180 0.001092
			CHANNELS 3 Zrotation Yrotation Xrotation
			JOINT Spine2
			{
				OFFSET 0.001457 0.052922 0.025425
				CHANNELS 3 Zrotation Yrotation Xrotation
				JOINT Neck
				{
					OFFSET -0.002778 0.213870 -0.042857
					CHANNELS 3 Zrotation Yrotation Xrotation
					JOINT Head
					{
						OFFSET 0.005152 0.064970 0.051349
						CHANNELS 3 Zrotation Yrotation Xrotation
						End Site
						{
							OFFSET 0.000000 0.000000 0.000000
						}
					}
				}
				JOINT LeftShoulder
				{
					OFFSET 0.078845 0.121749 -0.034090
					CHANNELS 3 Zrotation Yrotation Xrotation
					JOINT LeftArm
					{
						OFFSET 0.090977 0.030469 -0.008868
						CHANNELS 3 Zrotation Yrotation Xrotation
						JOINT LeftForeArm
						{
							OFFSET 0.259612 -0.012772 -0.027456
							CHANNELS 3 Zrotation Yrotation Xrotation
							JOINT LeftHand
							{
								OFFSET 0.249234 0.008986 -0.001171
								CHANNELS 3 Zrotation Yrotation Xrotation
								End Site
								{
									OFFSET 0.000000 0.000000 0.000000
								}
							}
						}
					}
				}
				JOINT RightShoulder
				{
					OFFSET -0.081759 0.118833 -0.038615
					CHANNELS 3 Zrotation Yrotation Xrotation
					JOINT RightArm
					{
						OFFSET -0.096012 0.032551 -0.009143
						CHANNELS 3 Zrotation Yrotation Xrotation
						JOINT RightForeArm
						{
							OFFSET -0.253742 -0.013329 -0.021401
							CHANNELS 3 Zrotation Yrotation Xrotation
							JOINT RightHand
							{
								OFFSET -0.255298 0.007772 -0.005559
								CHANNELS 3 Zrotation Yrotation Xrotation
								End Site
								{
									OFFSET 0.000000 0.000000 0.000000
								}
							}
						}
					}
				}
			}
		}
	}
}
MOTION
Frames: 7
Frame Time: 0.050000
-0.009737 0.959914 -0.024055 0.223570 1.502647 -0.057368 7.458088 0.012493 5.286291 -4.129530 0.419032 -7.055524 -0.979674 5.503042 19.054234 0.000000 0.000000 0.000000 -2.437069 -0.368654 5.172841 -1.100156 -0.162920 -5.711013 -3.594756 -12.820937 20.050589 0.000000 0.000000 0.000000 -1.329659 -0.023214 1.151710 5.578159 -0.979482 -20.611945 -0.137740 -1.685798 30.706833 2.727204 -0.470297 -23.049440 0.000000 0.000000 0.000000 -11.877950 3.316976 -1.979086 -42.431134 -27.481118 2.008387 125.073496 -59.827606 -87.012079 0.000000 0.000000 0.000000 -6.256132 4.460093 1.506494 33.240122 10.695779 -2.378492 -102.433040 43.005544 -46.242117 0.000000 0.000000 0.000000 
-0.009617 0.959973 -0.024530 0.155954 0.841893 -0.132750 7.432819 0.035394 5.421402 -4.075377 0.424838 -6.986500 -0.649522 5.886917 19.086543 0.000000 0.000000 0.000000 -2.408111 -0.354890 5.066811 -1.156460 -0.154940 -5.611515 -3.265054 -12.383345 19.917906 0.000000 0.000000 0.000000 -1.500048 -0.021871 1.204317 5.765064 -1.036467 -20.696633 -0.080020 -1.538604 30.645694 2.724459 -0.525603 -22.834956 0.000000 0.000000 0.000000 -11.858839 3.268775 -1.915660 -43.360657 -27.424067 2.108176 129.474327 -61.152114 -93.445826 0.000000 0.000000 0.000000 -6.327338 4.557533 1.552649 32.935177 10.726437 -2.355304 -105.974564 43.559593 -49.849116 0.000000 0.000000 0.000000 
-0.009501 0.959975 -0.024919 0.103801 0.340438 -0.133586 7.340809 0.051495 5.347779 -3.910839 0.422848 -6.737481 -0.366482 6.204000 19.042534 0.000000 0.000000 0.000000 -2.502181 -0.331895 4.927126 -0.989753 -0.161297 -5.540661 -3.012662 -12.043228 19.807659 0.000000 0.000000 0.000000 -1.538036 -0.020097 1.168758 5.685614 -1.017805 -20.785375 -0.054891 -1.314333 30.752434 2.733853 -0.547156 -22.779186 0.000000 0.000000 0.000000 -12.419529 3.319576 -1.966421 -44.139632 -27.528100 2.223655 134.033623 -62.640303 -100.533212 0.000000 0.000000 0.000000 -6.214904 4.547034 1.554824 32.715305 10.341941 -2.443889 -110.539301 43.701087 -53.852921 0.000000 0.000000 0.000000 
-0.009331 0.959956 -0.025195 0.007914 -0.180739 -0.212817 7.206494 0.075380 5.405785 -3.596053 0.412373 -6.548431 -0.072442 6.535272 18.988334 0.000000 0.000000 0.000000 -2.601754 -0.311975 4.821862 -0.739218 -0.168081 -5.370351 -2.745194 -11.681558 19.681072 0.000000 0.000000 0.000000 -1.419627 -0.026348 1.305587 5.632263 -1.019905 -20.698998 -0.143507 -1.115862 30.378121 2.697878 -0.585285 -22.181565 0.000000 0.000000 0.000000 -12.700242 3.177784 -1.904644 -44.904182 -26.995715 2.144045 136.476784 -63.054929 -103.915927 0.000000 0.000000 0.000000 -6.310730 4.785652 1.634768 32.349090 9.709701 -2.539766 -113.827734 43.424483 -56.567912 0.000000 0.000000 0.000000 
-0.009102 0.959745 -0.025395 0.132971 -0.616656 -0.319097 7.017953 0.097351 5.339298 -3.600421 0.416041 -6.110718 0.170716 6.795143 18.894833 0.000000 0.000000 0.000000 -2.957707 -0.282406 4.802436 -0.456440 -0.179837 -5.265133 -2.540806 -11.390756 19.472999 0.000000 0.000000 0.000000 -1.315840 -0.032120 1.425533 5.399848 -0.949410 -20.910731 -0.266070 -0.881904 30.529950 2.680858 -0.593617 -22.042071 0.000000 0.000000 0.000000 -13.284285 3.320046 -2.006190 -45.784441 -26.317252 1.957703 139.643067 -63.582728 -108.401460 0.000000 0.000000 0.000000 -6.285865 4.399401 1.525376 31.837074 8.882202 -2.709324 -116.163831 42.879057 -58.116122 0.000000 0.000000 0.000000 
-0.008814 0.959594 -0.025538 0.106600 -1.138148 -0.389965 6.856499 0.121134 5.375862 -3.386547 0.407341 -5.885642 0.466990 7.126961 18.826287 0.000000 0.000000 0.000000 -3.291189 -0.258061 4.858733 0.061817 -0.213926 -5.381686 -2.252521 -10.995403 19.376417 0.000000 0.000000 0.000000 -1.064293 -0.040572 1.531391 5.207333 -0.904373 -20.945516 -0.429733 -0.421397 30.410892 2.212217 -0.254097 -22.136006 0.000000 0.000000 0.000000 -13.616631 3.434583 -2.114466 -46.514479 -25.522962 1.732833 140.361960 -64.209158 -110.014897 0.000000 0.000000 0.000000 -5.998818 3.937769 1.386098 31.041361 8.133161 -2.815153 -117.300248 42.189271 -58.292245 0.000000 0.000000 0.000000 
-0.008552 0.959274 -0.025665 0.230353 -1.583111 -0.476081 6.665913 0.145829 5.437157 -3.393417 0.410731 -5.703343 0.705906 7.390314 18.769052 0.000000 0.000000 0.000000 -3.532416 -0.227828 4.736612 0.142142 -0.208442 -5.135577 -2.073723 -10.727228 19.107236 0.000000 0.000000 0.000000 -0.785556 -0.046161 1.523179 4.942052 -0.847721 -20.853705 -0.682676 -0.237933 30.378466 2.062110 -0.178759 -22.030941 0.000000 0.000000 0.000000 -14.055077 3.821895 -2.324471 -47.373052 -24.744531 1.498736 138.869139 -64.232122 -107.928320 0.000000 0.000000 0.000000 -6.146666 3.715306 1.329934 30.442831 7.238885 -2.951386 -118.617856 40.957484 -58.089340 0.000000 0.000000 0.000000 
